<svg width="0" height="0" class="hidden">
  <symbol xmlns="http://www.w3.org/2000/svg" viewBox="0 0 512 512" id="gem">
    <path d="M168.5 72L256 165l87.5-93h-175zM383.9 99.1L311.5 176h129L383.9 99.1zm50 124.9H256 78.1L256 420.3 433.9 224zM71.5 176h129L128.1 99.1 71.5 176zm434.3 40.1l-232 256c-4.5 5-11 7.9-17.8 7.9s-13.2-2.9-17.8-7.9l-232-256c-7.7-8.5-8.3-21.2-1.5-30.4l112-152c4.5-6.1 11.7-9.8 19.3-9.8H376c7.6 0 14.8 3.6 19.3 9.8l112 152c6.8 9.2 6.1 21.9-1.5 30.4z"></path>
  </symbol>
  <symbol xmlns="http://www.w3.org/2000/svg" viewBox="0 0 640 512" id="handshake">
    <path d="M323.4 85.2l-96.8 78.4c-16.1 13-19.2 36.4-7 53.1c12.9 17.8 38 21.3 55.3 7.8l99.3-77.2c7-5.4 17-4.2 22.5 2.8s4.2 17-2.8 22.5l-20.9 16.2L550.2 352H592c26.5 0 48-21.5 48-48V176c0-26.5-21.5-48-48-48H516h-4-.7l-3.9-2.5L434.8 79c-15.3-9.8-33.2-15-51.4-15c-21.8 0-43 7.5-60 21.2zm22.8 124.4l-51.7 40.2C263 274.4 217.3 268 193.7 235.6c-22.2-30.5-16.6-73.1 12.7-96.8l83.2-67.3c-11.6-4.9-24.1-7.4-36.8-7.4C234 64 215.7 69.6 200 80l-72 48H48c-26.5 0-48 21.5-48 48V304c0 26.5 21.5 48 48 48H156.2l91.4 83.4c19.6 17.9 49.9 16.5 67.8-3.1c5.5-6.1 9.2-13.2 11.1-20.6l17 15.6c19.5 17.9 49.9 16.6 67.8-2.9c4.5-4.9 7.8-10.6 9.9-16.5c19.4 13 45.8 10.3 62.1-7.5c17.9-19.5 16.6-49.9-2.9-67.8l-134.2-123z"></path>
  </symbol>
  <symbol xmlns="http://www.w3.org/2000/svg" viewBox="0 0 512 512" id="rocket">
    <path d="M156.6 384.9L125.7 354c-8.5-8.5-11.5-20.8-7.7-32.2c3-8.9 7-20.5 11.8-33.8L24 288c-8.6 0-16.6-4.6-20.9-12.1s-4.2-16.7 .2-24.1l52.5-88.5c13-21.9 36.5-35.3 61.9-35.3l82.3 0c2.4-4 4.8-7.7 7.2-11.3C289.1-4.1 411.1-8.1 483.9 5.3c11.6 2.1 20.6 11.2 22.8 22.8c13.4 72.9 9.3 194.8-111.4 276.7c-3.5 2.4-7.3 4.8-11.3 7.2v82.3c0 25.4-13.4 49-35.3 61.9l-88.5 52.5c-7.4 4.4-16.6 4.5-24.1 .2s-12.1-12.2-12.1-20.9V380.8c-14.1 4.9-26.4 8.9-35.7 11.9c-11.2 3.6-23.4 .5-31.8-7.8zM384 168a40 40 0 1 0 0-80 40 40 0 1 0 0 80z"></path>
  </symbol>
  <symbol xmlns="http://www.w3.org/2000/svg" viewBox="0 0 512 512" id="sack-dollar">
    <path d="M320 96H192L144.6 24.9C137.5 14.2 145.1 0 157.9 0H354.1c12.8 0 20.4 14.2 13.3 24.9L320 96zM192 128H320c3.8 2.5 8.1 5.3 13 8.4C389.7 172.7 512 250.9 512 416c0 53-43 96-96 96H96c-53 0-96-43-96-96C0 250.9 122.3 172.7 179 136.4l0 0 0 0c4.8-3.1 9.2-5.9 13-8.4zm84 88c0-11-9-20-20-20s-20 9-20 20v14c-7.6 1.7-15.2 4.4-22.2 8.5c-13.9 8.3-25.9 22.8-25.8 43.9c.1 20.3 12 33.1 24.7 40.7c11 6.6 24.7 10.8 35.6 14l1.7 .5c12.6 3.8 21.8 6.8 28 10.7c5.1 3.2 5.8 5.4 5.9 8.2c.1 5-1.8 8-5.9 10.5c-5 3.1-12.9 5-21.4 4.7c-11.1-.4-21.5-3.9-35.1-8.5c-2.3-.8-4.7-1.6-7.2-2.4c-10.5-3.5-21.8 2.2-25.3 12.6s2.2 21.8 12.6 25.3c1.9 .6 4 1.3 6.1 2.1l0 0 0 0c8.3 2.9 17.9 6.2 28.2 8.4V424c0 11 9 20 20 20s20-9 20-20V410.2c8-1.7 16-4.5 23.2-9c14.3-8.9 25.1-24.1 24.8-45c-.3-20.3-11.7-33.4-24.6-41.6c-11.5-7.2-25.9-11.6-37.1-15l0 0-.7-.2c-12.8-3.9-21.9-6.7-28.3-10.5c-5.2-3.1-5.3-4.9-5.3-6.7c0-3.7 1.4-6.5 6.2-9.3c5.4-3.2 13.6-5.1 21.5-5c9.6 .1 20.2 2.2 31.2 5.2c10.7 2.8 21.6-3.5 24.5-14.2s-3.5-21.6-14.2-24.5c-6.5-1.7-13.7-3.4-21.1-4.7V216z"></path>
  </symbol>
    <symbol xmlns="http://www.w3.org/2000/svg" viewBox="0 0 320 512" id="chevron-right">
    <path d="M310.6 233.4c12.5 12.5 12.5 32.8 0 45.3l-192 192c-12.5 12.5-32.8 12.5-45.3 0s-12.5-32.8 0-45.3L242.7 256 73.4 86.6c-12.5-12.5-12.5-32.8 0-45.3s32.8-12.5 45.3 0l192 192z"></path>
  </symbol>
   <symbol version="1.1" xmlns="http://www.w3.org/2000/svg" viewBox="0 0 512 512" id="swords">
    <path d="M125.495 267.030c-3.337-3.337-8.731-3.337-12.067 0-25.302 25.294-25.814 53.096-1.707 78.51l-53.898 53.89-8.867-8.798c-6.647-6.656-17.468-6.673-24.099-0.043l-19.866 19.875c-6.656 6.647-6.656 17.476 0 24.133l72.4 72.407c3.328 3.328 7.707 4.992 12.076 4.992s8.748-1.664 12.067-4.992l19.867-19.858c3.482-3.482 5.163-8.346 4.625-13.346-0.495-4.582-2.756-8.995-6.536-12.774l-6.912-6.878 53.839-53.83c25.763 24.526 52.875 23.928 78.552-1.749 3.337-3.337 3.337-8.731 0-12.067l-119.472-119.471zM176.655 386.458l-4.301-4.241c-3.336-3.285-8.696-3.268-12.024 0.043l-59.838 59.846-13.45-13.389c-3.336-3.328-8.731-3.311-12.076 0.026-3.328 3.337-3.311 8.738 0.026 12.067l32.436 32.3c1.263 1.254 1.587 2.236 1.86 2.014l-19.831 19.815-72.4-72.408 19.858-19.807 14.925 14.815c3.328 3.302 8.721 3.294 12.041-0.026l59.829-59.838 15.317 15.353c3.337 3.337 8.731 3.337 12.066 0.017 3.345-3.328 3.345-8.738 0.017-12.075l-25.618-25.669c-9.591-9.601-14.474-19.022-14.499-28.024-0.017-7.049 2.935-14.363 8.799-21.803l106.755 106.746c-16.94 13.474-32.573 11.581-49.895-5.76z"></path>
    <path d="M287.635 176.693l143.313-143.314 45.774-10.172-171.286 171.286c-3.337 3.337-3.337 8.731 0 12.066 1.664 1.664 3.849 2.5 6.033 2.5s4.369-0.836 6.033-2.5l171.279-171.278-10.163 45.766-143.314 143.314c-3.337 3.337-3.337 8.731 0 12.066 1.664 1.664 3.849 2.5 6.033 2.5s4.369-0.836 6.033-2.5l145.072-145.071c1.152-1.143 1.946-2.594 2.304-4.181l17.067-76.802c0.111-0.521 0.12-1.050 0.137-1.57 0.009-0.128 0.043-0.256 0.043-0.384-0.017-0.973-0.213-1.911-0.546-2.816-0.077-0.205-0.171-0.393-0.265-0.589-0.418-0.922-0.939-1.792-1.673-2.526s-1.604-1.254-2.517-1.673c-0.205-0.094-0.393-0.188-0.597-0.265-0.904-0.324-1.843-0.529-2.807-0.546-0.145 0-0.273 0.034-0.418 0.043-0.521 0.017-1.033 0.034-1.544 0.145l-76.803 17.067c-1.579 0.35-3.029 1.143-4.181 2.295l-145.075 145.072c-3.337 3.337-3.337 8.731 0 12.066s8.731 3.336 12.067 0z"></path>
    <path d="M507.008 410.462l-19.858-19.866c-6.007-6.016-16.923-7.296-26.13 1.92l-6.861 6.895-53.839-53.83c24.517-25.755 23.937-52.866-1.749-78.552-3.337-3.337-8.731-3.337-12.067 0l-119.471 119.47c-3.337 3.337-3.337 8.731 0 12.067 25.302 25.302 53.113 25.814 78.51 1.707l53.899 53.899-8.806 8.866c-6.656 6.656-6.673 17.469-0.034 24.099l19.866 19.866c3.319 3.328 7.697 4.992 12.067 4.992s8.748-1.664 12.075-4.992l72.399-72.399c6.654-6.656 6.654-17.493-0.002-24.142zM422.533 494.938l-19.807-19.858 14.815-14.925c3.302-3.337 3.294-8.721-0.026-12.041l-59.838-59.838 15.353-15.31c3.345-3.328 3.345-8.731 0.017-12.075-3.336-3.328-8.738-3.337-12.067-0.009l-25.678 25.618c-9.601 9.591-19.029 14.474-28.024 14.498h-0.077c-7.023 0-14.31-2.953-21.726-8.807l106.747-106.738c13.483 16.923 11.563 32.556-5.769 49.887l-4.233 4.301c-3.285 3.345-3.268 8.714 0.051 12.024l59.838 59.838-13.397 13.45c-3.319 3.336-3.302 8.748 0.026 12.067 3.354 3.337 8.748 3.319 12.075-0.026l32.291-32.428c1.263-1.254 2.219-1.587 2.022-1.86l19.815 19.832-72.406 72.401z"></path>
    <path d="M281.601 349.865c2.185 0 4.369-0.836 6.033-2.5 3.336-3.337 3.336-8.731 0-12.067l-254.25-254.251-10.163-45.766 282.216 282.216c1.664 1.664 3.849 2.5 6.033 2.5s4.369-0.836 6.033-2.5c3.337-3.337 3.337-8.731 0-12.067l-282.224-282.224 45.775 10.172 254.25 254.25c3.337 3.337 8.731 3.337 12.067 0s3.336-8.731 0-12.067l-256.009-256.009c-1.152-1.152-2.603-1.946-4.181-2.295l-76.802-17.067c-0.512-0.111-1.024-0.128-1.545-0.145-0.145-0.009-0.273-0.043-0.418-0.043-0.973 0.017-1.903 0.222-2.808 0.546-0.204 0.077-0.392 0.171-0.588 0.265-0.922 0.41-1.792 0.939-2.526 1.673s-1.263 1.604-1.673 2.525c-0.094 0.197-0.188 0.384-0.264 0.589-0.333 0.905-0.529 1.843-0.546 2.816 0 0.128 0.034 0.256 0.043 0.384 0.017 0.521 0.026 1.050 0.137 1.57l17.067 76.802c0.358 1.587 1.152 3.038 2.304 4.181l164.639 164.639-19.567 19.567c-3.337 3.337-3.337 8.731 0 12.067 1.664 1.664 3.849 2.5 6.033 2.5s4.369-0.836 6.033-2.5l19.567-19.567 17.8 17.801-19.567 19.567c-3.337 3.336-3.337 8.731 0 12.067 1.664 1.664 3.849 2.5 6.033 2.5 2.185 0 4.369-0.836 6.033-2.5l19.567-19.567 17.802 17.801-19.567 19.567c-3.337 3.337-3.337 8.731 0 12.067 1.664 1.664 3.849 2.5 6.033 2.5s4.369-0.836 6.033-2.5l19.567-19.567 19.567 19.567c1.662 1.664 3.847 2.5 6.031 2.5z"></path>
  </symbol>
</svg>