<svg width="20" height="21" viewBox="0 0 20 21" fill="none" xmlns="http://www.w3.org/2000/svg">
<path d="M9.16667 5.49996C9.16667 4.34937 7.67428 3.41663 5.83333 3.41663C3.99238 3.41663 2.5 4.34937 2.5 5.49996M9.16667 5.49996C9.16667 6.65055 7.67428 7.58329 5.83333 7.58329C3.99238 7.58329 2.5 6.65055 2.5 5.49996M9.16667 5.49996V15.5C9.16667 16.6506 7.67428 17.5833 5.83333 17.5833C3.99238 17.5833 2.5 16.6506 2.5 15.5V5.49996M9.16667 8.83329C9.16667 9.98389 7.67428 10.9166 5.83333 10.9166C3.99238 10.9166 2.5 9.98389 2.5 8.83329M9.16667 12.5833C9.16667 13.7339 7.67428 14.6666 5.83333 14.6666C3.99238 14.6666 2.5 13.7339 2.5 12.5833M17.5 13C17.5 11.8494 16.0076 10.9166 14.1667 10.9166C12.3257 10.9166 10.8333 11.8494 10.8333 13M17.5 13C17.5 14.1506 16.0076 15.0833 14.1667 15.0833C12.3257 15.0833 10.8333 14.1506 10.8333 13M17.5 13V15.5C17.5 16.6506 16.0076 17.5833 14.1667 17.5833C12.3257 17.5833 10.8333 16.6506 10.8333 15.5V13" stroke="black" stroke-width="1.5" stroke-linecap="round" stroke-linejoin="round"/>
</svg>
