<svg width="219" height="214" viewBox="0 0 219 214" fill="none" xmlns="http://www.w3.org/2000/svg">
<path d="M188.874 128.926C190.888 121.789 191.965 114.262 191.965 106.483C191.965 60.9278 155.037 24 109.483 24C81.2133 24 56.2681 38.2197 41.4088 59.8943C42.5084 65.5659 43.5387 71.1113 44.5155 76.4236C45.2402 80.3622 43.4348 83.784 39.6916 85.58C36.2855 87.2121 32.8038 86.6387 30.0973 84.0109C28.0807 91.1538 27 98.6938 27 106.483C27 152.037 63.9278 188.965 109.483 188.965C137.749 188.965 162.691 174.749 177.553 153.077C176.466 147.472 175.436 141.967 174.45 136.671C173.722 132.757 175.461 129.317 179.104 127.47C182.541 125.725 186.076 126.257 188.874 128.926Z" fill="black"/>
<path d="M188.874 128.926C190.888 121.789 191.965 114.262 191.965 106.483C191.965 60.9278 155.037 24 109.483 24C81.2133 24 56.2681 38.2197 41.4088 59.8943C42.5084 65.5659 43.5387 71.1113 44.5155 76.4236C45.2402 80.3622 43.4348 83.784 39.6916 85.58C36.2855 87.2121 32.8038 86.6387 30.0973 84.0109C28.0807 91.1538 27 98.6938 27 106.483C27 152.037 63.9278 188.965 109.483 188.965C137.749 188.965 162.691 174.749 177.553 153.077C176.466 147.472 175.436 141.967 174.45 136.671C173.722 132.757 175.461 129.317 179.104 127.47C182.541 125.725 186.076 126.257 188.874 128.926Z" fill="url(#paint0_linear_85_6087)"/>
<path d="M217.002 155.779C215.232 155.073 213.467 154.298 211.762 153.548C211 153.214 210.234 152.877 209.456 152.543L206.749 151.374L207.736 148.595C207.865 148.236 207.975 147.908 208.082 147.606C208.303 146.966 208.492 146.415 208.719 145.844C218.051 122.141 218.814 97.9233 210.978 73.8667C202.07 46.5206 183.084 24.3607 157.511 11.4706C131.889 -1.44465 102.709 -3.5305 75.35 5.60378C63.6573 9.50767 52.8121 15.4092 43.1201 23.1413C40.2308 25.4478 39.3234 28.7939 40.6971 32.0929C41.8062 34.7522 44.5002 37.15 48.0197 36.5103C49.8598 36.1764 52.0181 35.1271 54.4379 33.3879C77.083 17.1327 101.858 11.6754 128.076 17.1705C146.764 21.0838 164.226 31.0752 177.251 45.298C191.194 60.526 199.37 79.5571 200.898 100.337C201.844 113.195 200.016 125.755 195.306 138.742L193.51 143.692L189.996 139.77C189.303 138.991 188.664 138.27 188.065 137.589C187.561 137.019 187.088 136.48 186.628 135.967C185.96 135.22 185.324 134.527 184.678 133.852C184.073 133.225 183.569 132.983 183.071 132.983C182.709 132.983 182.349 133.109 181.959 133.307C180.623 133.985 180.471 134.769 180.651 135.737C181.228 138.843 181.82 142.019 182.431 145.243C183.594 151.406 184.826 157.745 186.137 164.116C186.546 166.117 188.119 166.13 189.02 165.959C194.263 164.967 199.588 163.921 204.739 162.909C208.63 162.147 212.657 161.356 216.621 160.594C218.414 160.25 218.842 159.475 218.956 158.338C219.044 157.433 218.962 156.557 217.002 155.779Z" fill="black"/>
<path d="M217.002 155.779C215.232 155.073 213.467 154.298 211.762 153.548C211 153.214 210.234 152.877 209.456 152.543L206.749 151.374L207.736 148.595C207.865 148.236 207.975 147.908 208.082 147.606C208.303 146.966 208.492 146.415 208.719 145.844C218.051 122.141 218.814 97.9233 210.978 73.8667C202.07 46.5206 183.084 24.3607 157.511 11.4706C131.889 -1.44465 102.709 -3.5305 75.35 5.60378C63.6573 9.50767 52.8121 15.4092 43.1201 23.1413C40.2308 25.4478 39.3234 28.7939 40.6971 32.0929C41.8062 34.7522 44.5002 37.15 48.0197 36.5103C49.8598 36.1764 52.0181 35.1271 54.4379 33.3879C77.083 17.1327 101.858 11.6754 128.076 17.1705C146.764 21.0838 164.226 31.0752 177.251 45.298C191.194 60.526 199.37 79.5571 200.898 100.337C201.844 113.195 200.016 125.755 195.306 138.742L193.51 143.692L189.996 139.77C189.303 138.991 188.664 138.27 188.065 137.589C187.561 137.019 187.088 136.48 186.628 135.967C185.96 135.22 185.324 134.527 184.678 133.852C184.073 133.225 183.569 132.983 183.071 132.983C182.709 132.983 182.349 133.109 181.959 133.307C180.623 133.985 180.471 134.769 180.651 135.737C181.228 138.843 181.82 142.019 182.431 145.243C183.594 151.406 184.826 157.745 186.137 164.116C186.546 166.117 188.119 166.13 189.02 165.959C194.263 164.967 199.588 163.921 204.739 162.909C208.63 162.147 212.657 161.356 216.621 160.594C218.414 160.25 218.842 159.475 218.956 158.338C219.044 157.433 218.962 156.557 217.002 155.779Z" fill="url(#paint1_linear_85_6087)"/>
<path d="M171.032 176.88C169.267 177.161 167.118 178.147 165.136 179.587C142.23 196.239 117.209 201.825 90.7703 196.192C68.9161 191.538 49.4817 179.13 36.0434 161.255C29.2281 152.187 24.2435 142.092 21.2313 131.25C18.0584 119.834 17.1667 107.896 18.5814 95.7682C19.1297 91.0735 20.2293 86.4606 21.2943 81.999C21.7701 79.9951 22.2648 77.9219 22.6964 75.8959L23.0903 74.04L28.1883 72.5906L29.5022 74.0841C30.0158 74.6702 30.5231 75.2626 31.0304 75.8549C31.481 76.3811 31.9221 76.8947 32.36 77.3957C33.0343 78.1645 33.7023 78.9049 34.3986 79.6202C35.2399 80.4772 35.9362 80.6127 36.9729 80.118C38.3277 79.4658 38.4916 78.7127 38.3214 77.7832C37.7448 74.6544 37.1525 71.4437 36.5381 68.1732C35.3722 61.9881 34.1308 55.5887 32.7949 49.139C32.5522 47.9731 31.837 47.3871 30.668 47.3871C30.4065 47.3871 30.1229 47.4186 29.8173 47.4753C20.3049 49.2902 11.0257 51.1019 2.24118 52.8601C0.0702517 53.2949 0.0198381 54.5426 0.00408395 55.0121C-0.0400278 56.1275 0.253 56.9026 1.87883 57.5517C3.64015 58.2575 5.33845 58.9822 7.13443 59.7478C7.91269 60.0818 8.69725 60.4158 9.49441 60.7529L12.1852 61.8872L11.2589 64.6537C11.1454 64.9908 11.0478 65.2996 10.9532 65.5895C10.7516 66.2228 10.5625 66.8183 10.3168 67.4327C2.80203 86.196 0.848509 105.87 4.50663 125.912C10.1246 156.696 28.9855 183.349 56.256 199.037C83.6021 214.769 116.235 217.68 145.797 207.018C156.815 203.045 166.954 197.373 175.928 190.161C178.754 187.889 179.624 184.694 178.313 181.389C177.264 178.739 174.601 176.316 171.032 176.88Z" fill="black"/>
<path d="M171.032 176.88C169.267 177.161 167.118 178.147 165.136 179.587C142.23 196.239 117.209 201.825 90.7703 196.192C68.9161 191.538 49.4817 179.13 36.0434 161.255C29.2281 152.187 24.2435 142.092 21.2313 131.25C18.0584 119.834 17.1667 107.896 18.5814 95.7682C19.1297 91.0735 20.2293 86.4606 21.2943 81.999C21.7701 79.9951 22.2648 77.9219 22.6964 75.8959L23.0903 74.04L28.1883 72.5906L29.5022 74.0841C30.0158 74.6702 30.5231 75.2626 31.0304 75.8549C31.481 76.3811 31.9221 76.8947 32.36 77.3957C33.0343 78.1645 33.7023 78.9049 34.3986 79.6202C35.2399 80.4772 35.9362 80.6127 36.9729 80.118C38.3277 79.4658 38.4916 78.7127 38.3214 77.7832C37.7448 74.6544 37.1525 71.4437 36.5381 68.1732C35.3722 61.9881 34.1308 55.5887 32.7949 49.139C32.5522 47.9731 31.837 47.3871 30.668 47.3871C30.4065 47.3871 30.1229 47.4186 29.8173 47.4753C20.3049 49.2902 11.0257 51.1019 2.24118 52.8601C0.0702517 53.2949 0.0198381 54.5426 0.00408395 55.0121C-0.0400278 56.1275 0.253 56.9026 1.87883 57.5517C3.64015 58.2575 5.33845 58.9822 7.13443 59.7478C7.91269 60.0818 8.69725 60.4158 9.49441 60.7529L12.1852 61.8872L11.2589 64.6537C11.1454 64.9908 11.0478 65.2996 10.9532 65.5895C10.7516 66.2228 10.5625 66.8183 10.3168 67.4327C2.80203 86.196 0.848509 105.87 4.50663 125.912C10.1246 156.696 28.9855 183.349 56.256 199.037C83.6021 214.769 116.235 217.68 145.797 207.018C156.815 203.045 166.954 197.373 175.928 190.161C178.754 187.889 179.624 184.694 178.313 181.389C177.264 178.739 174.601 176.316 171.032 176.88Z" fill="url(#paint2_linear_85_6087)"/>
<defs>
<linearGradient id="paint0_linear_85_6087" x1="49.566" y1="155.972" x2="161.894" y2="44.7035" gradientUnits="userSpaceOnUse">
<stop stop-color="#FFCF4E"/>
<stop offset="1" stop-color="#FF7D37"/>
</linearGradient>
<linearGradient id="paint1_linear_85_6087" x1="64.5418" y1="132.821" x2="177.357" y2="12.3974" gradientUnits="userSpaceOnUse">
<stop stop-color="#FFCF4E"/>
<stop offset="1" stop-color="#FF7D37"/>
</linearGradient>
<linearGradient id="paint2_linear_85_6087" x1="24.4736" y1="180.154" x2="137.241" y2="59.7339" gradientUnits="userSpaceOnUse">
<stop stop-color="#FFCF4E"/>
<stop offset="1" stop-color="#FF7D37"/>
</linearGradient>
</defs>
</svg>
