<svg width="20" height="21" viewBox="0 0 20 21" fill="none" xmlns="http://www.w3.org/2000/svg">
<path d="M4.62791 8.22655C5.18837 6.90157 6.23703 5.78014 7.65872 5.15716M7.65872 5.15716L7.46254 6.26668M7.65872 5.15716L6.54919 4.96098M15.3721 12.7735C14.8116 14.0985 13.7629 15.2199 12.3413 15.8429M12.3413 15.8429L12.5374 14.7334M12.3413 15.8429L13.4508 16.0391M10 14.25C10 12.1789 8.32107 10.5 6.25 10.5C4.17893 10.5 2.5 12.1789 2.5 14.25C2.5 16.3211 4.17893 18 6.25 18C8.32107 18 10 16.3211 10 14.25ZM17.5 6.75C17.5 4.67893 15.8211 3 13.75 3C11.6789 3 10 4.67893 10 6.75C10 8.82107 11.6789 10.5 13.75 10.5C15.8211 10.5 17.5 8.82107 17.5 6.75Z" stroke="black" stroke-width="1.5" stroke-linecap="round" stroke-linejoin="round"/>
</svg>
