<svg width="24" height="24" viewBox="0 0 24 24" fill="none" xmlns="http://www.w3.org/2000/svg">
<path d="M13 9.17071C11.8348 9.58254 11 10.6938 11 12V14.8293M13 9.17071C13.3128 9.06015 13.6494 9 14 9H16.7574C17.553 9 18.3161 9.31607 18.8787 9.87868L20.1213 11.1213C20.6839 11.6839 21 12.447 21 13.2426V18C21 19.6569 19.6569 21 18 21H14C12.3431 21 11 19.6569 11 18V14.8293M13 9.17071V7.24264C13 6.44699 12.6839 5.68393 12.1213 5.12132L10.8787 3.87868C10.3161 3.31607 9.55301 3 8.75736 3H6C4.34315 3 3 4.34315 3 6V12C3 13.6569 4.34315 15 6 15H10C10.3506 15 10.6872 14.9398 11 14.8293" stroke="#FFCF4E" stroke-width="1.5" stroke-linecap="round" stroke-linejoin="round"/>
</svg>
