<svg width="20" height="21" viewBox="0 0 20 21" fill="none" xmlns="http://www.w3.org/2000/svg">
<path d="M15.6861 3.97198C16.2918 4.57554 16.6667 5.41066 16.6667 6.33334C16.6667 7.25602 16.2918 8.09114 15.6861 8.6947M4.3167 3.97198C3.71093 4.57554 3.33605 5.41066 3.33605 6.33334C3.33605 7.25602 3.71093 8.09114 4.3167 8.6947M17.6968 13C18.0927 13.4423 18.3334 14.0264 18.3334 14.6667V15.5C18.3334 16.1403 18.0927 16.7244 17.6968 17.1667M2.30005 13C1.90417 13.4423 1.66345 14.0264 1.66345 14.6667V15.5C1.66345 16.1403 1.90417 16.7244 2.30005 17.1667M13.3334 6.33333C13.3334 4.49238 11.841 3 10 3C8.15909 3 6.6667 4.49238 6.6667 6.33333C6.6667 8.17428 8.15909 9.66667 10 9.66667C11.841 9.66667 13.3334 8.17428 13.3334 6.33333ZM4.1667 15.5V14.6667C4.1667 13.286 5.28599 12.1667 6.6667 12.1667H13.3334C14.7141 12.1667 15.8334 13.286 15.8334 14.6667V15.5C15.8334 16.8807 14.7141 18 13.3334 18H6.6667C5.28599 18 4.1667 16.8807 4.1667 15.5Z" stroke="black" stroke-width="1.5" stroke-linecap="round" stroke-linejoin="round"/>
</svg>
