<svg width="64" height="64" viewBox="0 0 64 64" fill="none" xmlns="http://www.w3.org/2000/svg">
<rect width="64" height="64" rx="16" fill="#4E47FF"/>
<path d="M43.372 18.944C44.5836 20.1511 45.3333 21.8213 45.3333 23.6667C45.3333 25.512 44.5836 27.1823 43.372 28.3894M20.6333 18.944C19.4217 20.1511 18.672 21.8213 18.672 23.6667C18.672 25.512 19.4217 27.1823 20.6333 28.3894M47.3934 37C48.1852 37.8846 48.6666 39.0528 48.6666 40.3334V42C48.6666 43.2806 48.1852 44.4488 47.3934 45.3334M16.6 37C15.8082 37.8846 15.3268 39.0528 15.3268 40.3334V42C15.3268 43.2806 15.8082 44.4488 16.6 45.3334M38.6666 23.6667C38.6666 19.9848 35.6819 17 32 17C28.3181 17 25.3333 19.9848 25.3333 23.6667C25.3333 27.3486 28.3181 30.3333 32 30.3333C35.6819 30.3333 38.6666 27.3486 38.6666 23.6667ZM20.3333 42V40.3333C20.3333 37.5719 22.5719 35.3333 25.3333 35.3333H38.6666C41.428 35.3333 43.6666 37.5719 43.6666 40.3333V42C43.6666 44.7614 41.428 47 38.6666 47H25.3333C22.5719 47 20.3333 44.7614 20.3333 42Z" stroke="white" stroke-width="2" stroke-linecap="round" stroke-linejoin="round"/>
</svg>
