<svg width="24" height="25" viewBox="0 0 24 25" fill="none" xmlns="http://www.w3.org/2000/svg">
<path d="M2.51319 7.44405C2.52447 7.04668 2.60522 6.63945 2.73084 6.23791C3.48291 3.83405 6.52285 3.35506 8.81118 4.48245C8.97974 4.5655 9.18429 4.53647 9.32309 4.4098C11.2074 2.69026 14.2606 2.30455 15.6518 4.40425C15.8841 4.75499 16.075 5.12367 16.1964 5.50221C17.7972 10.4941 12.517 15.0948 10.6166 15.3645C8.71615 15.6342 2.36451 12.6806 2.51319 7.44405Z" stroke="black" stroke-width="1.5" stroke-linejoin="round"/>
<path d="M14.2055 15.9699C14.2886 15.7894 14.4056 15.6179 14.542 15.4578C15.3591 14.4994 16.8513 14.8749 17.683 15.8419C17.7442 15.9132 17.844 15.9399 17.9327 15.9089C19.1365 15.4872 20.6165 15.9081 20.8449 17.1466C20.8831 17.3535 20.8986 17.5605 20.8802 17.7584C20.6383 20.3684 17.3078 21.4498 16.3807 21.2014C15.4537 20.953 13.1109 18.3496 14.2055 15.9699Z" stroke="black" stroke-width="1.5" stroke-linejoin="round"/>
</svg>
