<svg width="20" height="21" viewBox="0 0 20 21" fill="none" xmlns="http://www.w3.org/2000/svg">
<path d="M13.0034 13.1142C13.869 12.5319 14.6524 11.856 15.1493 11.1044C16.4626 9.11797 17.0135 7.12127 17.1623 5.34843C17.1767 5.17682 17.189 5.01835 17.1996 4.8721C17.272 3.86453 16.5791 3.17168 15.5715 3.24408C15.4253 3.25459 15.2668 3.26691 15.0952 3.28132C13.3224 3.43018 11.3257 3.98103 9.3392 5.29437C8.58768 5.79124 7.91171 6.5746 7.32944 7.44021M13.0034 13.1142C13.0338 13.7996 13.2943 14.8516 11.8436 16.719C11.4262 17.2563 10.6027 16.9858 10.311 16.3711C9.94011 15.5895 9.46824 15.3392 9.09521 15.0985M13.0034 13.1142C11.6383 14.0325 10.0685 14.7177 9.09521 15.0985M9.09521 15.0985C8.92403 15.1655 8.7713 15.2231 8.64139 15.2709C8.34731 15.379 8.02044 15.3007 7.79889 15.0792L5.36446 12.6447C5.14291 12.4232 5.06465 12.0963 5.17277 11.8022C5.22054 11.6723 5.27811 11.5196 5.3451 11.3484M7.32944 7.44021C6.64407 7.40984 5.59208 7.14938 3.72465 8.60004C3.18732 9.01745 3.45785 9.84097 4.07257 10.1327C4.85417 10.5035 5.10445 10.9754 5.3451 11.3484M7.32944 7.44021C6.41116 8.80538 5.72596 10.3752 5.3451 11.3484M3.63062 17.5752C4.27421 17.4926 5.0641 17.3183 5.70201 16.9547C6.09202 16.7324 6.08467 16.2128 5.76724 15.8954L4.58945 14.7176C4.25595 14.3841 3.70834 14.3964 3.48448 14.8115C3.14138 15.4477 2.94542 16.197 2.85688 16.8128C2.79139 17.2684 3.17412 17.6338 3.63062 17.5752ZM13.6623 9.10107C14.3131 8.45019 14.3131 7.39492 13.6623 6.74404C13.0114 6.09317 11.9561 6.09317 11.3052 6.74404C10.6544 7.39492 10.6544 8.45019 11.3052 9.10107C11.9561 9.75194 13.0114 9.75194 13.6623 9.10107Z" stroke="black" stroke-width="1.5" stroke-linecap="round" stroke-linejoin="round"/>
</svg>
