<svg width="20" height="21" viewBox="0 0 20 21" fill="none" xmlns="http://www.w3.org/2000/svg">
<path d="M10.8333 7.16663L3.01417 15.015C2.85103 15.1769 2.72155 15.3694 2.63318 15.5816C2.54482 15.7938 2.49933 16.0214 2.49933 16.2512C2.49933 16.4811 2.54482 16.7086 2.63318 16.9208C2.72155 17.133 2.85103 17.3256 3.01417 17.4875C3.34365 17.8152 3.78947 17.9991 4.25417 17.9991C4.71888 17.9991 5.1647 17.8152 5.49417 17.4875L13.3333 9.66663" stroke="black" stroke-width="1.5" stroke-linecap="round" stroke-linejoin="round"/>
<path d="M7.49998 3H11.3216C11.5426 3.00005 11.7546 3.08788 11.9108 3.24417L17.2558 8.58917C17.4121 8.74541 17.4999 8.95734 17.5 9.17833V13C17.5 13.442 17.3244 13.866 17.0118 14.1785C16.6993 14.4911 16.2753 14.6667 15.8333 14.6667C15.3913 14.6667 14.9674 14.4911 14.6548 14.1785C14.3422 13.866 14.1666 13.442 14.1666 13V10.5L9.99998 6.33333H7.49998C7.05795 6.33333 6.63403 6.15774 6.32147 5.84518C6.00891 5.53262 5.83331 5.10869 5.83331 4.66667C5.83331 4.22464 6.00891 3.80072 6.32147 3.48816C6.63403 3.17559 7.05795 3 7.49998 3Z" stroke="black" stroke-width="1.5" stroke-linecap="round" stroke-linejoin="round"/>
</svg>
