<svg width="24" height="24" viewBox="0 0 24 24" fill="none" xmlns="http://www.w3.org/2000/svg">
<path d="M16.25 22.002C16.28 20.137 16.213 20.522 16.366 20.048C16.518 19.573 17.109 18.748 17.474 17.699C18.497 14.76 17.952 13.554 16.438 12.618C14.843 11.632 13.232 11.248 11.821 11.371V6.73403C11.821 5.77203 11.275 5.03003 10.312 5.03003C9.349 5.03003 8.862 5.86703 8.862 6.83003L8.913 11.665M8.913 11.665L6.832 13.731C5.728 14.881 6.026 15.706 6.076 16.059C6.351 16.816 6.346 16.898 7.547 18.636C8.637 20.213 8.895 20.548 8.895 21.333V22.002M8.913 11.665V15.191" stroke="white" stroke-width="1.5" stroke-linecap="round" stroke-linejoin="round"/>
<path d="M6.49801 6.02402C6.43201 5.10402 6.99801 3.28402 8.55101 2.52302C9.19101 2.13302 10.95 1.53002 12.631 2.60502C14.288 3.66402 14.4 5.22502 14.504 6.01302" stroke="white" stroke-width="1.5" stroke-linecap="round" stroke-linejoin="round"/>
</svg>
