<svg width="24" height="25" viewBox="0 0 24 25" fill="none" xmlns="http://www.w3.org/2000/svg">
<path d="M21.4575 2.95538C21.3413 2.85504 21.1999 2.78831 21.0486 2.76237C20.8973 2.73643 20.7417 2.75228 20.5987 2.8082L1.59937 10.2435C1.3301 10.3482 1.10214 10.5376 0.949797 10.783C0.797454 11.0285 0.728977 11.3168 0.754676 11.6046C0.780374 11.8923 0.898857 12.164 1.09229 12.3786C1.28572 12.5932 1.54362 12.7391 1.82718 12.7944L6.74999 13.761V19.2501C6.74902 19.5491 6.83787 19.8414 7.00503 20.0893C7.17219 20.3372 7.40995 20.5292 7.68749 20.6404C7.96461 20.7535 8.26936 20.7807 8.56213 20.7183C8.85489 20.656 9.12211 20.507 9.32905 20.2907L11.7028 17.8288L15.4687 21.1251C15.7404 21.3661 16.0909 21.4994 16.4541 21.5001C16.6132 21.4999 16.7714 21.475 16.9228 21.426C17.1703 21.3475 17.3928 21.2055 17.5683 21.0142C17.7438 20.8229 17.8662 20.589 17.9231 20.3357L21.7284 3.78132C21.7625 3.63202 21.7552 3.47628 21.7075 3.33078C21.6598 3.18528 21.5734 3.05551 21.4575 2.95538ZM15.7256 6.33038L7.32655 12.3454L2.67656 11.4332L15.7256 6.33038ZM8.24999 19.2501V14.7988L10.5741 16.8369L8.24999 19.2501ZM16.4559 20.0001L8.70468 13.2032L19.8609 5.20726L16.4559 20.0001Z" fill="white"/>
</svg>
